<svg xmlns="http://www.w3.org/2000/svg" viewBox="0 0 512 512" role="img" aria-label="Movie Match icon">
  <defs>
    <linearGradient id="bg" x1="0" y1="0" x2="1" y2="1">
      <stop offset="0" stop-color="#0c0a12"/>
      <stop offset="1" stop-color="#161226"/>
    </linearGradient>
    <linearGradient id="gold" x1="0" y1="0" x2="1" y2="0">
      <stop offset="0" stop-color="#f5d36d"/>
      <stop offset="1" stop-color="#caa44a"/>
    </linearGradient>
    <linearGradient id="teal" x1="0" y1="0" x2="1" y2="1">
      <stop offset="0" stop-color="#40f3cf"/>
      <stop offset="1" stop-color="#1aa7a3"/>
    </linearGradient>
    <filter id="soft" x="-20%" y="-20%" width="140%" height="140%">
      <feGaussianBlur stdDeviation="10" result="b"/>
      <feColorMatrix
        in="b"
        type="matrix"
        values="1 0 0 0 0  0 1 0 0 0  0 0 1 0 0  0 0 0 .45 0"
        result="g"
      />
      <feMerge>
        <feMergeNode in="g"/>
        <feMergeNode in="SourceGraphic"/>
      </feMerge>
    </filter>
  </defs>

  <rect width="512" height="512" rx="120" fill="url(#bg)"/>
  <g filter="url(#soft)">
    <path
      d="M122 176c0-20 16-36 36-36h196c20 0 36 16 36 36v160c0 20-16 36-36 36H158c-20 0-36-16-36-36V176Z"
      fill="rgba(255,255,255,0.04)"
      stroke="rgba(245,211,109,0.22)"
      stroke-width="8"
    />
    <path
      d="M188 196h136c12 0 22 10 22 22v76c0 12-10 22-22 22H188c-12 0-22-10-22-22v-76c0-12 10-22 22-22Z"
      fill="rgba(64,243,207,0.08)"
      stroke="rgba(64,243,207,0.45)"
      stroke-width="6"
    />
    <path d="M202 220h20v72h-20zM290 220h20v72h-20z" fill="url(#gold)"/>
    <path
      d="M256 332c34 0 62 18 78 42 6 9-1 22-12 22H190c-11 0-18-13-12-22 16-24 44-42 78-42Z"
      fill="rgba(255,255,255,0.04)"
      stroke="rgba(202,164,74,0.35)"
      stroke-width="6"
    />
    <circle cx="206" cy="168" r="7" fill="url(#gold)"/>
    <circle cx="256" cy="168" r="7" fill="url(#gold)"/>
    <circle cx="306" cy="168" r="7" fill="url(#gold)"/>
    <path d="M148 176h216" stroke="rgba(245,211,109,0.12)" stroke-width="8" stroke-linecap="round"/>
    <path
      d="M165 400c52 32 130 32 182 0"
      fill="none"
      stroke="url(#teal)"
      stroke-width="10"
      stroke-linecap="round"
    />
  </g>
</svg>

